<svg width="35" height="35" viewBox="0 0 35 35" fill="none" xmlns="http://www.w3.org/2000/svg">
<path d="M17.5 16.625C18.9497 16.625 20.125 15.4497 20.125 14C20.125 12.5503 18.9497 11.375 17.5 11.375C16.0503 11.375 14.875 12.5503 14.875 14C14.875 15.4497 16.0503 16.625 17.5 16.625Z" fill="#1A4709"/>
<path d="M12.25 14C12.25 15.4497 11.0747 16.625 9.625 16.625C8.17525 16.625 7 15.4497 7 14C7 12.5503 8.17525 11.375 9.625 11.375C11.0747 11.375 12.25 12.5503 12.25 14Z" fill="#1A4709"/>
<path d="M25.375 16.625C26.8247 16.625 28 15.4497 28 14C28 12.5503 26.8247 11.375 25.375 11.375C23.9253 11.375 22.75 12.5503 22.75 14C22.75 15.4497 23.9253 16.625 25.375 16.625Z" fill="#1A4709"/>
<path fill-rule="evenodd" clip-rule="evenodd" d="M0 14C0 9.08438 0 6.62657 1.17971 4.86101C1.69042 4.09668 2.34668 3.44042 3.11101 2.92971C4.87657 1.75 7.33438 1.75 12.25 1.75H22.75C27.6656 1.75 30.1234 1.75 31.889 2.92971C32.6533 3.44042 33.3096 4.09668 33.8203 4.86101C35 6.62657 35 9.08438 35 14V15.75C35 19.0116 35 20.6424 34.4672 21.9288C33.7567 23.644 32.394 25.0067 30.6788 25.7172C29.3924 26.25 27.7616 26.25 24.5 26.25C23.346 26.25 22.7691 26.25 22.2121 26.3404C21.4694 26.4609 20.751 26.7004 20.0846 27.0495C19.5848 27.3114 19.1232 27.6576 18.2 28.35L12.6 32.55C10.1565 34.3826 8.93475 35.2989 7.96738 34.8152C7 34.3316 7 32.8044 7 29.75V27.65C7 26.8768 6.3732 26.25 5.6 26.25C2.50721 26.25 0 23.7428 0 20.65V14ZM12.25 4.375H22.75C25.2624 4.375 26.9492 4.37817 28.2351 4.50899C29.4771 4.63534 30.051 4.85869 30.4306 5.11232C30.9083 5.43151 31.3185 5.84167 31.6377 6.31938C31.8913 6.69896 32.1147 7.27285 32.241 8.5149C32.3718 9.80081 32.375 11.4876 32.375 14V15.75C32.375 17.4167 32.3736 18.5353 32.3145 19.4014C32.257 20.2439 32.1538 20.6542 32.042 20.9242C31.5979 21.9962 30.7462 22.8479 29.6742 23.292C29.4042 23.4038 28.9939 23.507 28.1514 23.5645C27.2853 23.6236 26.1667 23.625 24.5 23.625L24.33 23.625C23.3408 23.6246 22.562 23.6243 21.7916 23.7493C20.7704 23.915 19.7827 24.2442 18.8663 24.7244C18.175 25.0866 17.5522 25.5541 16.7611 26.1479L11.025 30.45C10.4665 30.8689 10.0124 31.2078 9.63469 31.4806C9.62629 31.0148 9.625 30.4481 9.625 29.75V27.65C9.625 25.4271 7.82295 23.625 5.6 23.625C3.95695 23.625 2.625 22.293 2.625 20.65V14C2.625 11.4876 2.62817 9.80081 2.75899 8.5149C2.88534 7.27285 3.10869 6.69896 3.36232 6.31938C3.68151 5.84167 4.09167 5.43151 4.56938 5.11232C4.94896 4.85869 5.52285 4.63534 6.7649 4.50899C8.05081 4.37817 9.73756 4.375 12.25 4.375Z" fill="#1A4709"/>
</svg>
