<svg width="35" height="35" viewBox="0 0 35 35" fill="none" xmlns="http://www.w3.org/2000/svg">
<path d="M17.5 22.75C20.3995 22.75 22.75 20.3995 22.75 17.5C22.75 14.6005 20.3995 12.25 17.5 12.25C14.6005 12.25 12.25 14.6005 12.25 17.5C12.25 20.3995 14.6005 22.75 17.5 22.75Z" fill="#1A4709"/>
<path fill-rule="evenodd" clip-rule="evenodd" d="M20.5966 1.82232C19.2472 -0.607443 15.7528 -0.60744 14.4034 1.82233L13.8231 2.86708C13.0234 4.30701 11.3366 5.00569 9.75292 4.553L8.60387 4.22455C5.93153 3.46068 3.46068 5.93153 4.22455 8.60387L4.553 9.75293C5.00569 11.3366 4.30701 13.0234 2.86708 13.8231L1.82232 14.4034C-0.607443 15.7528 -0.60744 19.2472 1.82233 20.5966L2.86708 21.1769C4.30701 21.9766 5.00568 23.6634 4.553 25.2471L4.22455 26.3961C3.46068 29.0685 5.93153 31.5393 8.60387 30.7754L9.75293 30.447C11.3366 29.9943 13.0234 30.693 13.8231 32.1329L14.4034 33.1777C15.7528 35.6074 19.2472 35.6074 20.5966 33.1777L21.1769 32.1329C21.9766 30.693 23.6634 29.9943 25.2471 30.447L26.3961 30.7754C29.0685 31.5393 31.5393 29.0685 30.7754 26.3961L30.447 25.2471C29.9943 23.6634 30.693 21.9766 32.1329 21.1769L33.1777 20.5966C35.6074 19.2472 35.6074 15.7528 33.1777 14.4034L32.1329 13.8231C30.693 13.0234 29.9943 11.3366 30.447 9.75292L30.7754 8.60387C31.5393 5.93153 29.0685 3.46068 26.3961 4.22455L25.2471 4.553C23.6634 5.00569 21.9766 4.30701 21.1769 2.86708L20.5966 1.82232ZM18.8821 4.14162C20.2745 6.64863 23.2112 7.86507 25.9685 7.07692L27.1176 6.74847C27.8095 6.55067 28.4493 7.19047 28.2515 7.88242L27.9231 9.03148C27.1349 11.7888 28.3514 14.7255 30.8584 16.1179L31.9031 16.6982C32.5323 17.0476 32.5323 17.9524 31.9031 18.3018L30.8584 18.8821C28.3514 20.2745 27.1349 23.2112 27.9231 25.9685L28.2515 27.1176C28.4493 27.8095 27.8095 28.4493 27.1176 28.2515L25.9685 27.9231C23.2112 27.1349 20.2745 28.3514 18.8821 30.8584L18.3018 31.9031C17.9524 32.5323 17.0476 32.5323 16.6982 31.9031L16.1179 30.8584C14.7255 28.3514 11.7888 27.1349 9.03149 27.9231L7.88243 28.2515C7.19046 28.4493 6.55067 27.8095 6.74846 27.1176L7.07691 25.9685C7.86507 23.2112 6.64864 20.2745 4.14162 18.8821L3.09687 18.3018C2.46771 17.9524 2.46771 17.0476 3.09686 16.6982L4.14162 16.1179C6.64863 14.7255 7.86507 11.7888 7.07692 9.03149L6.74847 7.88243C6.55067 7.19046 7.19046 6.55067 7.88242 6.74847L9.03148 7.07691C11.7888 7.86507 14.7255 6.64864 16.1179 4.14162L16.6982 3.09687C17.0476 2.46771 17.9524 2.46772 18.3018 3.09686L18.8821 4.14162Z" fill="#1A4709"/>
</svg>
