<svg width="20" height="20" viewBox="0 0 20 20" fill="none" xmlns="http://www.w3.org/2000/svg">
<path fill-rule="evenodd" clip-rule="evenodd" d="M0 8C0 5.19108 0 3.78661 0.674122 2.77772C0.965956 2.34096 1.34096 1.96596 1.77772 1.67412C2.78661 1 4.19108 1 7 1H13C15.8089 1 17.2134 1 18.2223 1.67412C18.659 1.96596 19.034 2.34096 19.3259 2.77772C20 3.78661 20 5.19108 20 8V9C20 10.8638 20 11.7956 19.6955 12.5307C19.2895 13.5108 18.5108 14.2895 17.5307 14.6955C16.7956 15 15.8638 15 14 15C13.3406 15 13.0109 15 12.6926 15.0517C12.2682 15.1205 11.8577 15.2573 11.4769 15.4569C11.1913 15.6065 10.9275 15.8044 10.4 16.2L7.2 18.6C5.80372 19.6472 5.10557 20.1708 4.55279 19.8944C4 19.618 4 18.7454 4 17V15.8C4 15.3582 3.64183 15 3.2 15C1.43269 15 0 13.5673 0 11.8V8ZM7 2.5H13C14.4357 2.5 15.3995 2.50181 16.1343 2.57656C16.8441 2.64876 17.172 2.7764 17.3889 2.92133C17.6619 3.10372 17.8963 3.3381 18.0787 3.61107C18.2236 3.82798 18.3512 4.15592 18.4234 4.86566C18.4982 5.60047 18.5 6.56432 18.5 8V9C18.5 9.95241 18.4992 10.5916 18.4654 11.0865C18.4326 11.568 18.3736 11.8024 18.3097 11.9567C18.056 12.5693 17.5693 13.056 16.9567 13.3097C16.8024 13.3736 16.568 13.4326 16.0865 13.4654C15.5916 13.4992 14.9524 13.5 14 13.5L13.9029 13.5C13.3376 13.4998 12.8926 13.4996 12.4523 13.571C11.8688 13.6657 11.3044 13.8539 10.7807 14.1282C10.3857 14.3352 10.0298 14.6023 9.5777 14.9417L6.3 17.4C5.98085 17.6394 5.72137 17.833 5.50554 17.9889C5.50074 17.7227 5.5 17.3989 5.5 17V15.8C5.5 14.5297 4.47026 13.5 3.2 13.5C2.26112 13.5 1.5 12.7389 1.5 11.8V8C1.5 6.56432 1.50181 5.60047 1.57656 4.86566C1.64876 4.15592 1.7764 3.82798 1.92133 3.61107C2.10372 3.3381 2.3381 3.10372 2.61107 2.92133C2.82798 2.7764 3.15592 2.64876 3.86566 2.57656C4.60047 2.50181 5.56432 2.5 7 2.5Z" fill="#654315"/>
</svg>
