<svg width="35" height="35" viewBox="0 0 35 35" fill="none" xmlns="http://www.w3.org/2000/svg">
<path d="M22.2301 32.108L21.1193 32.4057L22.2301 32.108C22.1599 31.8461 22.15 31.4922 22.15 30.3332V27.9998L22.15 27.9287C22.1501 27.1649 22.1501 26.4802 22.0757 25.9264C21.9945 25.3223 21.8062 24.7048 21.3006 24.1992C20.795 23.6936 20.1775 23.5054 19.5735 23.4241C19.0196 23.3497 18.3349 23.3497 17.5711 23.3498L17.5 23.3498L17.4289 23.3498C16.6651 23.3497 15.9804 23.3497 15.4265 23.4241C14.8225 23.5054 14.205 23.6936 13.6994 24.1992C13.1938 24.7048 13.0055 25.3223 12.9243 25.9264C12.8499 26.4802 12.8499 27.1649 12.85 27.9287L12.85 27.9998V30.3332C12.85 31.4922 12.8401 31.8461 12.7699 32.108C12.5526 32.919 11.9192 33.5524 11.1082 33.7697C10.8462 33.8399 10.4923 33.8498 9.33333 33.8498C7.08936 33.8498 6.19297 33.8399 5.48591 33.6505C3.46712 33.1096 1.89027 31.5327 1.34933 29.5139C1.15988 28.8068 1.15 27.9105 1.15 25.6665V18.4265C1.15 16.4686 1.15125 15.0817 1.25818 13.9815C1.3627 12.9062 1.56187 12.1945 1.90933 11.5809C2.25679 10.9672 2.76455 10.4303 3.63288 9.78736C4.52124 9.12965 5.7099 8.415 7.38873 7.4077L14.4902 3.14682C15.3873 2.60854 15.9879 2.24976 16.483 2.01701C16.9545 1.79536 17.2437 1.73148 17.5 1.73148C17.7563 1.73148 18.0455 1.79536 18.517 2.01701C19.0121 2.24975 19.6127 2.60854 20.5098 3.14681L27.6113 7.40769C29.2901 8.41499 30.4788 9.12965 31.3671 9.78736C32.2354 10.4303 32.7432 10.9672 33.0907 11.5809C33.4381 12.1945 33.6373 12.9062 33.7418 13.9815C33.8488 15.0817 33.85 16.4686 33.85 18.4265V25.6665C33.85 27.9105 33.8401 28.8068 33.6507 29.5139C33.1097 31.5327 31.5329 33.1096 29.5141 33.6505C28.807 33.8399 27.9106 33.8498 25.6667 33.8498C24.5077 33.8498 24.1538 33.8399 23.8918 33.7697C23.0808 33.5524 22.4474 32.919 22.2301 32.108Z" stroke="#1A4709" stroke-width="2.3"/>
</svg>
