<svg width="25" height="25" viewBox="0 0 25 25" fill="none" xmlns="http://www.w3.org/2000/svg">
<path fill-rule="evenodd" clip-rule="evenodd" d="M16.7467 18.0583C15.2445 19.2727 13.3322 20 11.25 20C6.41751 20 2.5 16.0825 2.5 11.25C2.5 6.41751 6.41751 2.5 11.25 2.5C16.0825 2.5 20 6.41751 20 11.25C20 13.3322 19.2727 15.2445 18.0583 16.7467C18.0948 16.7739 18.1298 16.804 18.1629 16.8371L23.1629 21.8371C23.529 22.2032 23.529 22.7968 23.1629 23.1629C22.7968 23.529 22.2032 23.529 21.8371 23.1629L16.8371 18.1629C16.804 18.1298 16.7739 18.0948 16.7467 18.0583ZM18.125 11.25C18.125 15.047 15.047 18.125 11.25 18.125C7.45304 18.125 4.375 15.047 4.375 11.25C4.375 7.45304 7.45304 4.375 11.25 4.375C15.047 4.375 18.125 7.45304 18.125 11.25Z" fill="#654315"/>
</svg>
