<svg width="35" height="35" viewBox="0 0 35 35" fill="none" xmlns="http://www.w3.org/2000/svg">
<path d="M17.5876 26.25C16.8627 26.25 16.2751 25.6624 16.2751 24.9375V18.9H10.0625C9.33763 18.9 8.75 18.3124 8.75 17.5875C8.75 16.8626 9.33763 16.275 10.0625 16.275H16.2751V10.0625C16.2751 9.33763 16.8627 8.75 17.5876 8.75C18.3125 8.75 18.9001 9.33763 18.9001 10.0625V16.275H24.9375C25.6624 16.275 26.25 16.8626 26.25 17.5875C26.25 18.3124 25.6624 18.9 24.9375 18.9H18.9001V24.9375C18.9001 25.6624 18.3125 26.25 17.5876 26.25Z" fill="#1A4709"/>
<path fill-rule="evenodd" clip-rule="evenodd" d="M0 17.5C0 10.9577 0 7.68653 1.40673 5.25C2.3283 3.6538 3.6538 2.3283 5.25 1.40673C7.68653 0 10.9577 0 17.5 0C24.0423 0 27.3135 0 29.75 1.40673C31.3462 2.3283 32.6717 3.6538 33.5933 5.25C35 7.68653 35 10.9577 35 17.5C35 24.0423 35 27.3135 33.5933 29.75C32.6717 31.3462 31.3462 32.6717 29.75 33.5933C27.3135 35 24.0423 35 17.5 35C10.9577 35 7.68653 35 5.25 33.5933C3.6538 32.6717 2.3283 31.3462 1.40673 29.75C0 27.3135 0 24.0423 0 17.5ZM17.5 32.375C14.1805 32.375 11.8664 32.3725 10.0723 32.2099C8.3142 32.0505 7.31466 31.7542 6.5625 31.3199C5.36535 30.6288 4.37123 29.6347 3.68005 28.4375C3.24579 27.6853 2.94947 26.6858 2.79013 24.9277C2.62751 23.1336 2.625 20.8195 2.625 17.5C2.625 14.1805 2.62751 11.8664 2.79013 10.0723C2.94947 8.3142 3.24579 7.31466 3.68005 6.5625C4.37123 5.36535 5.36535 4.37123 6.5625 3.68005C7.31466 3.24579 8.3142 2.94947 10.0723 2.79013C11.8664 2.62751 14.1805 2.625 17.5 2.625C20.8195 2.625 23.1336 2.62751 24.9277 2.79013C26.6858 2.94947 27.6853 3.24579 28.4375 3.68005C29.6347 4.37123 30.6288 5.36535 31.3199 6.5625C31.7542 7.31466 32.0505 8.3142 32.2099 10.0723C32.3725 11.8664 32.375 14.1805 32.375 17.5C32.375 20.8195 32.3725 23.1336 32.2099 24.9277C32.0505 26.6858 31.7542 27.6853 31.3199 28.4375C30.6288 29.6347 29.6347 30.6288 28.4375 31.3199C27.6853 31.7542 26.6858 32.0505 24.9277 32.2099C23.1336 32.3725 20.8195 32.375 17.5 32.375Z" fill="#1A4709"/>
</svg>
