<svg width="35" height="35" viewBox="0 0 35 35" fill="none" xmlns="http://www.w3.org/2000/svg">
<path fill-rule="evenodd" clip-rule="evenodd" d="M1.40673 5.25C0 7.68653 0 10.9577 0 17.5C0 24.0423 0 27.3135 1.40673 29.75C2.3283 31.3462 3.6538 32.6717 5.25 33.5933C7.68653 35 10.9577 35 17.5 35C24.0423 35 27.3135 35 29.75 33.5933C31.3462 32.6717 32.6717 31.3462 33.5933 29.75C35 27.3135 35 24.0423 35 17.5C35 10.9577 35 7.68653 33.5933 5.25C32.6717 3.6538 31.3462 2.3283 29.75 1.40673C27.3135 0 24.0423 0 17.5 0C10.9577 0 7.68653 0 5.25 1.40673C3.6538 2.3283 2.3283 3.6538 1.40673 5.25ZM18.9001 10.0625C18.9001 9.33763 18.3125 8.75 17.5876 8.75C16.8627 8.75 16.2751 9.33763 16.2751 10.0625V16.275H10.0625C9.33763 16.275 8.75 16.8626 8.75 17.5875C8.75 18.3124 9.33763 18.9 10.0625 18.9H16.2751V24.9375C16.2751 25.6624 16.8627 26.25 17.5876 26.25C18.3125 26.25 18.9001 25.6624 18.9001 24.9375V18.9H24.9375C25.6624 18.9 26.25 18.3124 26.25 17.5875C26.25 16.8626 25.6624 16.275 24.9375 16.275H18.9001V10.0625Z" fill="#1A4709"/>
</svg>
