<svg width="35" height="35" viewBox="0 0 35 35" fill="none" xmlns="http://www.w3.org/2000/svg">
<path fill-rule="evenodd" clip-rule="evenodd" d="M1.17971 4.86101C0 6.62657 0 9.08438 0 14V20.65C0 23.7428 2.50721 26.25 5.6 26.25C6.3732 26.25 7 26.8768 7 27.65V29.75C7 32.8044 7 34.3316 7.96738 34.8152C8.93475 35.2989 10.1565 34.3826 12.6 32.55L18.2 28.35C19.1232 27.6576 19.5848 27.3114 20.0846 27.0495C20.751 26.7004 21.4694 26.4609 22.2121 26.3404C22.7691 26.25 23.346 26.25 24.5 26.25C27.7616 26.25 29.3924 26.25 30.6788 25.7172C32.394 25.0067 33.7567 23.644 34.4672 21.9288C35 20.6424 35 19.0116 35 15.75V14C35 9.08438 35 6.62657 33.8203 4.86101C33.3096 4.09668 32.6533 3.44042 31.889 2.92971C30.1234 1.75 27.6656 1.75 22.75 1.75H12.25C7.33438 1.75 4.87657 1.75 3.11101 2.92971C2.34668 3.44042 1.69042 4.09668 1.17971 4.86101ZM17.5 16.625C18.9497 16.625 20.125 15.4497 20.125 14C20.125 12.5503 18.9497 11.375 17.5 11.375C16.0503 11.375 14.875 12.5503 14.875 14C14.875 15.4497 16.0503 16.625 17.5 16.625ZM12.25 14C12.25 15.4497 11.0747 16.625 9.625 16.625C8.17525 16.625 7 15.4497 7 14C7 12.5503 8.17525 11.375 9.625 11.375C11.0747 11.375 12.25 12.5503 12.25 14ZM25.375 16.625C26.8247 16.625 28 15.4497 28 14C28 12.5503 26.8247 11.375 25.375 11.375C23.9253 11.375 22.75 12.5503 22.75 14C22.75 15.4497 23.9253 16.625 25.375 16.625Z" fill="#1A4709"/>
</svg>
