<svg width="35" height="35" viewBox="0 0 35 35" fill="none" xmlns="http://www.w3.org/2000/svg">
<path d="M21.1015 2.16088C19.3468 1.10807 18.4694 0.581667 17.5 0.581667C16.5306 0.581667 15.6532 1.10807 13.8985 2.16088L6.79706 6.42177C3.47715 8.41371 1.8172 9.40968 0.908601 11.0144C0 12.6192 0 14.555 0 18.4267V25.6667C0 27.8366 0 28.9216 0.238519 29.8117C0.885789 32.2274 2.77262 34.1142 5.18827 34.7615C6.07843 35 7.1634 35 9.33333 35C10.4183 35 10.9608 35 11.4059 34.8807C12.6137 34.5571 13.5571 33.6137 13.8807 32.4059C14 31.9608 14 31.4183 14 30.3333V28C14 26.3501 14 25.5251 14.5126 25.0126C15.0251 24.5 15.8501 24.5 17.5 24.5C19.1499 24.5 19.9749 24.5 20.4874 25.0126C21 25.5251 21 26.3501 21 28V30.3333C21 31.4183 21 31.9608 21.1193 32.4059C21.4429 33.6137 22.3863 34.5571 23.5941 34.8807C24.0392 35 24.5817 35 25.6667 35C27.8366 35 28.9216 35 29.8117 34.7615C32.2274 34.1142 34.1142 32.2274 34.7615 29.8117C35 28.9216 35 27.8366 35 25.6667V18.4267C35 14.555 35 12.6192 34.0914 11.0144C33.1828 9.40968 31.5228 8.41371 28.2029 6.42176L21.1015 2.16088Z" fill="#1A4709"/>
</svg>
