<svg width="35" height="35" viewBox="0 0 35 35" fill="none" xmlns="http://www.w3.org/2000/svg">
<path fill-rule="evenodd" clip-rule="evenodd" d="M20.5966 1.82232C19.2472 -0.607443 15.7528 -0.60744 14.4034 1.82233L13.8231 2.86708C13.0234 4.30701 11.3366 5.00569 9.75292 4.553L8.60387 4.22455C5.93153 3.46068 3.46068 5.93153 4.22455 8.60387L4.553 9.75293C5.00569 11.3366 4.30701 13.0234 2.86708 13.8231L1.82232 14.4034C-0.607443 15.7528 -0.60744 19.2472 1.82233 20.5966L2.86708 21.1769C4.30701 21.9766 5.00568 23.6634 4.553 25.2471L4.22455 26.3961C3.46068 29.0685 5.93153 31.5393 8.60387 30.7754L9.75293 30.447C11.3366 29.9943 13.0234 30.693 13.8231 32.1329L14.4034 33.1777C15.7528 35.6074 19.2472 35.6074 20.5966 33.1777L21.1769 32.1329C21.9766 30.693 23.6634 29.9943 25.2471 30.447L26.3961 30.7754C29.0685 31.5393 31.5393 29.0685 30.7754 26.3961L30.447 25.2471C29.9943 23.6634 30.693 21.9766 32.1329 21.1769L33.1777 20.5966C35.6074 19.2472 35.6074 15.7528 33.1777 14.4034L32.1329 13.8231C30.693 13.0234 29.9943 11.3366 30.447 9.75292L30.7754 8.60387C31.5393 5.93153 29.0685 3.46068 26.3961 4.22455L25.2471 4.553C23.6634 5.00569 21.9766 4.30701 21.1769 2.86708L20.5966 1.82232ZM17.5 22.75C20.3995 22.75 22.75 20.3995 22.75 17.5C22.75 14.6005 20.3995 12.25 17.5 12.25C14.6005 12.25 12.25 14.6005 12.25 17.5C12.25 20.3995 14.6005 22.75 17.5 22.75Z" fill="#1A4709"/>
</svg>
