<svg width="514" height="514" xmlns="http://www.w3.org/2000/svg" xmlns:xlink="http://www.w3.org/1999/xlink" xml:space="preserve" overflow="hidden"><defs><clipPath id="clip0"><rect x="3043" y="1214" width="514" height="514"/></clipPath><clipPath id="clip1"><rect x="3159" y="1331" width="282" height="281"/></clipPath><clipPath id="clip2"><rect x="3159" y="1331" width="282" height="281"/></clipPath><clipPath id="clip3"><rect x="3159" y="1331" width="282" height="281"/></clipPath></defs><g clip-path="url(#clip0)" transform="translate(-3043 -1214)"><path d="M169.765 228.998 162.194 221.422 94.3136 289.307C94.2927 289.328 94.259 289.328 94.2381 289.307 94.2296 289.298 94.2237 289.287 94.2226 289.275 76.3327 199.37 134.712 111.985 224.617 94.0946 299.626 79.1688 375.123 117.428 407.441 186.743L417.143 182.208C376.024 93.7354 270.969 55.3482 182.497 96.4671 111.497 129.466 70.6884 205.262 82.2293 282.7 82.2384 282.725 82.2255 282.752 82.2009 282.762 82.1795 282.77 82.1559 282.762 82.1436 282.743L20.8331 221.422 13.2623 228.998 91.5134 307.249Z" fill="#2D4203" transform="matrix(1 0 0 1 3043 1214)"/><path d="M344.235 295.893 351.806 303.463 421.196 234.073C421.217 234.053 421.251 234.053 421.272 234.073 421.28 234.082 421.286 234.093 421.287 234.106 434.32 324.451 371.645 408.255 281.3 421.287 273.253 422.448 265.131 423.014 257 422.979 195.551 423.036 139.111 389.101 110.344 334.801L100.889 339.824C146.591 426.042 253.533 458.886 339.751 413.184 397.57 382.536 433.714 322.44 433.687 257 433.687 252.518 433.479 248.032 433.152 243.561 433.152 243.532 433.176 243.507 433.206 243.507 433.217 243.507 433.229 243.511 433.238 243.518L493.178 303.485 500.748 295.914 422.486 217.636Z" fill="#2D4203" transform="matrix(1 0 0 1 3043 1214)"/><g clip-path="url(#clip1)"><g clip-path="url(#clip2)"><g clip-path="url(#clip3)"><path d="M218.068 112.432C220.143 108.822 221.812 104.994 223.044 101.017L235.923 94.5769 235.923 79.9415 223.044 73.5019C221.967 69.5155 220.394 65.6802 218.36 62.0863L223.044 48.329 212.506 37.7915 198.749 42.4749C195.157 40.43 191.321 38.8459 187.333 37.7593L180.894 24.8802 166.258 24.8802 159.819 37.7593C155.832 38.8351 151.997 40.4084 148.403 42.4427L134.646 37.7593 124.108 48.2968 128.792 62.0541C126.758 65.648 125.185 69.4834 124.108 73.4697L111.229 79.9093 111.229 94.5447 124.108 100.984C125.185 104.971 126.759 108.806 128.792 112.4L124.108 126.157 134.353 136.402 148.11 131.719C151.704 133.752 155.54 135.325 159.526 136.402L165.966 149.281 180.601 149.281 187.041 136.402C191.027 135.326 194.862 133.752 198.456 131.719L212.213 136.402 222.751 126.157ZM212.524 114.317 216.019 124.577 210.706 129.743 200.344 126.213 197.815 125.352 195.506 126.699C192.336 128.49 188.951 129.872 185.434 130.811L182.957 131.52 181.804 133.823 176.983 143.483 169.592 143.483 164.771 133.823 163.618 131.52 161.142 130.811C157.623 129.872 154.238 128.49 151.067 126.699L148.76 125.352 146.231 126.213 135.922 129.725 130.829 124.632 134.341 114.32 135.202 111.791 133.855 109.485C132.068 106.312 130.691 102.926 129.758 99.4066L129.049 96.9303 126.748 95.78 117.083 90.9532 117.083 83.5506 126.743 78.7385 129.043 77.5852 129.752 75.1089C130.686 71.5906 132.063 68.2054 133.85 65.0339L135.196 62.7244 134.335 60.1984 130.823 49.8833 136.209 44.4975 146.518 48.01 149.047 48.8881 151.354 47.5387C154.525 45.7523 157.91 44.3754 161.429 43.4408L163.917 42.6915 165.07 40.3879 169.891 30.7285 177.29 30.7285 182.111 40.3879 183.265 42.6915 185.738 43.3998C189.256 44.3339 192.641 45.7108 195.813 47.4977L198.122 48.8471 200.651 47.969 210.958 44.4565 216.344 49.8423 212.831 60.1574 211.97 62.6835 213.317 64.9929C215.108 68.1641 216.49 71.5496 217.429 75.0679L218.135 77.5443 220.439 78.6975 230.098 83.5213 230.098 90.9239 220.439 95.7478 218.199 96.8688 217.462 99.2632C216.361 102.819 214.872 106.243 213.021 109.473L211.675 111.779Z" stroke="#2D4203" stroke-width="3.46915" fill="#2D4203" transform="matrix(1.00356 0 0 1 3159 1331)"/><path d="M45.0771 186.215 45.0771 200.85 57.9562 207.29C59.0328 211.276 60.6061 215.112 62.6395 218.706L58.2489 232.463 68.4937 242.708 82.251 238.317C85.8446 240.351 89.6799 241.924 93.6666 243L100.106 255.88 114.742 255.88 121.181 243C125.168 241.924 129.003 240.351 132.597 238.317L146.354 243 156.599 232.463 152.208 218.998C154.242 215.405 155.815 211.569 156.892 207.583L169.771 201.143 169.771 186.508 156.892 180.068C155.815 176.082 154.242 172.246 152.208 168.653L156.892 154.895 146.354 144.358 132.597 149.041C128.979 147.058 125.15 145.487 121.181 144.358L114.742 131.479 100.106 131.479 93.6666 144.358C89.6799 145.434 85.8446 147.007 82.251 149.041L68.4937 144.358 58.2489 154.603 62.6395 168.36C60.6564 171.978 59.0855 175.807 57.9562 179.775ZM62.8152 183.873 63.5528 181.479C64.56 177.942 65.9498 174.525 67.6975 171.29L69.0089 169.039 68.2156 166.56 64.911 156.195 70.0568 151.046 80.366 154.559 82.895 155.422 85.2015 154.076C88.3718 152.283 91.7573 150.901 95.2765 149.963L97.7645 149.281 98.9178 146.978 103.739 137.318 111.138 137.318 115.959 146.978 117.08 149.22 119.475 149.954C123.01 150.964 126.426 152.355 129.661 154.102L131.97 155.449 134.499 154.585 144.806 151.073 150.191 156.461 146.679 166.773 145.818 169.299 147.165 171.609C148.956 174.781 150.338 178.167 151.277 181.687L151.983 184.16 154.286 185.314 163.917 190.126 163.917 197.528 154.257 202.352 151.954 203.505 151.248 205.979C150.309 209.498 148.927 212.885 147.136 216.057L145.813 218.325 146.626 220.822 149.922 230.929 144.744 236.28 134.499 232.788 131.97 231.927 129.661 233.274C126.488 235.067 123.1 236.45 119.577 237.386L117.101 238.095 115.95 240.398 111.13 250.058 103.73 250.058 98.909 240.398 97.7557 238.095 95.2794 237.386C91.7602 236.448 88.3747 235.066 85.2044 233.274L82.9564 231.962 80.4743 232.753 70.1153 236.06 64.9139 230.859 68.2186 220.494 69.0118 218.015 67.7005 215.764C65.9082 212.593 64.5263 209.208 63.5879 205.689L62.8796 203.213 60.5789 202.059 50.9195 197.236 50.9195 189.833 60.5789 185.009Z" stroke="#2D4203" stroke-width="3.46915" fill="#2D4203" transform="matrix(1.00356 0 0 1 3159 1331)"/><path d="M173.576 65.2915C161.452 65.2915 151.623 75.1203 151.623 87.2446 151.623 99.3689 161.452 109.198 173.576 109.198 185.7 109.198 195.529 99.3689 195.529 87.2446 195.438 75.1581 185.662 65.3822 173.576 65.2915ZM173.576 103.344C164.69 103.331 157.49 96.1303 157.477 87.2446 157.595 78.4028 164.734 71.2639 173.576 71.1456 182.462 71.1585 189.662 78.3588 189.675 87.2446 189.565 96.0917 182.423 103.238 173.576 103.355Z" stroke="#2D4203" stroke-width="3.46915" fill="#2D4203" transform="matrix(1.00356 0 0 1 3159 1331)"/><path d="M107.424 215.787C119.548 215.787 129.377 205.959 129.377 193.834 129.377 181.71 119.548 171.881 107.424 171.881 95.2996 171.881 85.4708 181.71 85.4708 193.834 85.4561 205.944 95.2613 215.773 107.371 215.787 107.389 215.787 107.406 215.787 107.424 215.787ZM107.424 177.721C116.315 177.721 123.523 184.928 123.523 193.82 123.523 202.711 116.315 209.919 107.424 209.919 98.5326 209.919 91.325 202.711 91.325 193.82 91.3378 184.934 98.5381 177.734 107.424 177.721Z" stroke="#2D4203" stroke-width="3.46915" fill="#2D4203" transform="matrix(1.00356 0 0 1 3159 1331)"/></g></g></g></g></svg>