<svg width="137" height="137" xmlns="http://www.w3.org/2000/svg" xmlns:xlink="http://www.w3.org/1999/xlink" xml:space="preserve" overflow="hidden"><defs><clipPath id="clip0"><rect x="1508" y="372" width="137" height="137"/></clipPath></defs><g clip-path="url(#clip0)" transform="translate(-1508 -372)"><path d="M1542.25 429.09C1549.34 429.09 1555.09 423.34 1555.09 416.247 1555.09 409.153 1549.34 403.403 1542.25 403.403 1535.16 403.403 1529.41 409.153 1529.41 416.247 1529.41 423.34 1535.16 429.09 1542.25 429.09ZM1542.25 406.25C1547.77 406.25 1552.24 410.722 1552.24 416.24 1552.24 421.757 1547.77 426.229 1542.25 426.229 1536.73 426.229 1532.26 421.757 1532.26 416.24 1532.27 410.725 1536.74 406.257 1542.25 406.25Z" stroke="#2D4203" stroke-width="0.671568"/><path d="M1610.75 429.09C1617.84 429.09 1623.59 423.34 1623.59 416.247 1623.59 409.153 1617.84 403.403 1610.75 403.403 1603.66 403.403 1597.91 409.153 1597.91 416.247 1597.91 423.34 1603.66 429.09 1610.75 429.09ZM1610.75 406.25C1616.27 406.25 1620.74 410.722 1620.74 416.24 1620.74 421.757 1616.27 426.229 1610.75 426.229 1605.23 426.229 1600.76 421.757 1600.76 416.24 1600.77 410.725 1605.24 406.257 1610.75 406.25Z" stroke="#2D4203" stroke-width="0.671568"/><path d="M1633.44 439.771C1629.8 436.934 1625.59 434.923 1621.1 433.875 1617.74 432.871 1614.26 432.311 1610.75 432.209 1607.24 432.212 1603.76 432.772 1600.43 433.868 1598.06 434.481 1595.77 435.355 1593.59 436.473 1593.56 437.647 1593.4 438.813 1593.13 439.955 1595.66 438.479 1598.39 437.353 1601.23 436.607 1604.3 435.597 1607.52 435.076 1610.75 435.063 1614.01 435.168 1617.25 435.696 1620.37 436.633 1624.49 437.578 1628.34 439.412 1631.67 442.006L1631.79 442.097C1632.96 442.943 1633.64 444.32 1633.58 445.766L1633.58 456.469 1636.44 456.469 1636.44 445.766C1636.49 443.395 1635.37 441.152 1633.44 439.771Z" stroke="#2D4203" stroke-width="0.671568"/><path d="M1559.81 439.734C1559.55 438.606 1559.41 437.454 1559.39 436.297 1557.21 435.269 1554.93 434.456 1552.6 433.871 1549.24 432.869 1545.76 432.31 1542.25 432.209 1538.74 432.212 1535.26 432.772 1531.93 433.868 1527.46 435.086 1523.25 437.102 1519.51 439.818 1517.66 441.239 1516.58 443.436 1516.57 445.766L1516.57 456.469 1519.43 456.469 1519.43 445.766C1519.43 444.326 1520.1 442.968 1521.24 442.087 1524.71 439.585 1528.61 437.729 1532.74 436.607 1535.81 435.598 1539.02 435.077 1542.25 435.063 1545.51 435.168 1548.75 435.696 1551.87 436.633 1554.65 437.312 1557.32 438.355 1559.81 439.734Z" stroke="#2D4203" stroke-width="0.671568"/><path d="M1599.19 459.48C1595.55 456.643 1591.34 454.632 1586.85 453.585 1583.49 452.581 1580.01 452.02 1576.5 451.917 1573 451.92 1569.51 452.48 1566.18 453.576 1561.72 454.793 1557.51 456.809 1553.76 459.526 1551.91 460.944 1550.82 463.141 1550.81 465.474L1550.81 476.177 1553.67 476.177 1553.67 465.474C1553.67 464.034 1554.34 462.675 1555.48 461.795 1558.95 459.292 1562.84 457.436 1566.97 456.315 1570.05 455.305 1573.26 454.784 1576.5 454.771 1579.76 454.875 1583 455.403 1586.13 456.341 1590.24 457.284 1594.09 459.118 1597.42 461.712L1597.54 461.803C1598.71 462.65 1599.39 464.027 1599.33 465.474L1599.33 476.177 1602.19 476.177 1602.19 465.474C1602.24 463.104 1601.12 460.861 1599.19 459.48Z" stroke="#2D4203" stroke-width="0.671568"/><path d="M1576.5 448.798C1583.59 448.798 1589.34 443.048 1589.34 435.955 1589.34 428.861 1583.59 423.111 1576.5 423.111 1569.41 423.111 1563.66 428.861 1563.66 435.955 1563.66 443.048 1569.41 448.798 1576.5 448.798ZM1576.5 425.965C1582.02 425.965 1586.49 430.438 1586.49 435.955 1586.49 441.472 1582.02 445.944 1576.5 445.944 1570.98 445.944 1566.51 441.472 1566.51 435.955 1566.51 430.438 1570.98 425.966 1576.5 425.958Z" stroke="#2D4203" stroke-width="0.671568"/></g></svg>