<svg width="373" height="371" xmlns="http://www.w3.org/2000/svg" xmlns:xlink="http://www.w3.org/1999/xlink" xml:space="preserve" overflow="hidden"><defs><clipPath id="clip0"><rect x="995" y="1306" width="373" height="371"/></clipPath><clipPath id="clip1"><rect x="1038" y="1305" width="331" height="331"/></clipPath><clipPath id="clip2"><rect x="1038" y="1305" width="331" height="331"/></clipPath><clipPath id="clip3"><rect x="1038" y="1305" width="331" height="331"/></clipPath><clipPath id="clip4"><rect x="995" y="1511" width="197" height="167"/></clipPath><clipPath id="clip5"><rect x="995" y="1511" width="197" height="167"/></clipPath><clipPath id="clip6"><rect x="995" y="1511" width="197" height="167"/></clipPath></defs><g clip-path="url(#clip0)" transform="translate(-995 -1306)"><g clip-path="url(#clip1)"><g clip-path="url(#clip2)"><g clip-path="url(#clip3)"><path d="M1192.69 1391.94 1271.75 1391.94 1271.75 1398.81 1192.69 1398.81Z" stroke="#2D4203" stroke-width="4.58332"/><path d="M1192.69 1443.5 1271.75 1443.5 1271.75 1450.37 1192.69 1450.37Z" stroke="#2D4203" stroke-width="4.58332"/><path d="M1192.69 1495.06 1271.75 1495.06 1271.75 1501.94 1192.69 1501.94Z" stroke="#2D4203" stroke-width="4.58332"/><path d="M1192.69 1546.62 1271.75 1546.62 1271.75 1553.5 1192.69 1553.5Z" stroke="#2D4203" stroke-width="4.58332"/><path d="M1099.88 1608.5 1306.13 1608.5 1306.13 1333.5 1099.88 1333.5ZM1106.75 1340.37 1299.25 1340.37 1299.25 1601.62 1106.75 1601.62Z" stroke="#2D4203" stroke-width="4.58332"/><path d="M1134.25 1410.84 1165.19 1410.84 1165.19 1379.91 1134.25 1379.91ZM1141.13 1386.78 1158.31 1386.78 1158.31 1403.97 1141.13 1403.97Z" stroke="#2D4203" stroke-width="4.58332"/><path d="M1134.25 1462.41 1165.19 1462.41 1165.19 1431.47 1134.25 1431.47ZM1141.13 1438.34 1158.31 1438.34 1158.31 1455.53 1141.13 1455.53Z" stroke="#2D4203" stroke-width="4.58332"/><path d="M1134.25 1513.97 1165.19 1513.97 1165.19 1483.03 1134.25 1483.03ZM1141.13 1489.91 1158.31 1489.91 1158.31 1507.09 1141.13 1507.09Z" stroke="#2D4203" stroke-width="4.58332"/><path d="M1134.25 1565.53 1165.19 1565.53 1165.19 1534.59 1134.25 1534.59ZM1141.13 1541.47 1158.31 1541.47 1158.31 1558.66 1141.13 1558.66Z" stroke="#2D4203" stroke-width="4.58332"/></g></g></g><g clip-path="url(#clip4)"><g clip-path="url(#clip5)"><g clip-path="url(#clip6)"><path d="M55.3333 86.4584 79.5417 86.4584 79.5417 141.792 55.3333 141.792Z" fill="#2D4203" transform="matrix(1.18072 0 0 1 995 1511)"/><path d="M86.4584 55.3333 110.667 55.3333 110.667 141.792 86.4584 141.792Z" fill="#2D4203" transform="matrix(1.18072 0 0 1 995 1511)"/><path d="M117.583 24.2083 141.792 24.2083 141.792 141.792 117.583 141.792Z" fill="#2D4203" transform="matrix(1.18072 0 0 1 995 1511)"/><path d="M24.2083 117.583 48.4167 117.583 48.4167 141.792 24.2083 141.792Z" fill="#2D4203" transform="matrix(1.18072 0 0 1 995 1511)"/></g></g></g></g></svg>