<svg width="128" height="129" xmlns="http://www.w3.org/2000/svg" xmlns:xlink="http://www.w3.org/1999/xlink" xml:space="preserve" overflow="hidden"><defs><clipPath id="clip0"><rect x="896" y="740" width="128" height="129"/></clipPath></defs><g clip-path="url(#clip0)" transform="translate(-896 -740)"><path d="M112 18.6667 16 18.6667C13.0581 18.6755 10.6755 21.0581 10.6667 24L10.6667 88.02C10.6762 90.9616 13.0584 93.3439 16 93.3533L54.6667 93.3533 54.6667 106.687 40 106.687 40 109.353 88 109.353 88 106.687 73.3333 106.687 73.3333 93.3533 112 93.3533C114.942 93.3439 117.324 90.9616 117.333 88.02L117.333 24C117.325 21.0581 114.942 18.6755 112 18.6667ZM70.6667 106.692 57.3333 106.692 57.3333 93.3587 70.6667 93.3587ZM114.667 88.0253C114.667 89.4981 113.473 90.692 112 90.692L16 90.692C14.5272 90.692 13.3333 89.4981 13.3333 88.0253L13.3333 24C13.3333 22.5272 14.5272 21.3333 16 21.3333L112 21.3333C113.473 21.3333 114.667 22.5272 114.667 24Z" stroke="#2D4203" stroke-width="1.33333" transform="matrix(1 0 0 1.00781 896 740)"/><path d="M20 25.3333 17.3333 25.3333 17.3333 86.6853 110.667 86.6853 110.667 25.3333 20 25.3333ZM108 84.0187 20 84.0187 20 28 108 28Z" stroke="#2D4203" stroke-width="1.33333" transform="matrix(1 0 0 1.00781 896 740)"/></g></svg>