<svg width="150" height="150" xmlns="http://www.w3.org/2000/svg" xmlns:xlink="http://www.w3.org/1999/xlink" xml:space="preserve" overflow="hidden"><defs><clipPath id="clip0"><rect x="566" y="731" width="150" height="150"/></clipPath></defs><g clip-path="url(#clip0)" transform="translate(-566 -731)"><path d="M623.812 813.956 661.312 813.956C663.901 813.956 666 816.055 666 818.644 666 821.233 663.901 823.331 661.312 823.331L633.188 823.331C632.325 823.331 631.625 824.031 631.625 824.894 631.625 825.757 632.325 826.456 633.188 826.456L661.312 826.456C665.627 826.456 669.125 822.958 669.125 818.644 669.125 814.329 665.627 810.831 661.312 810.831L623.812 810.831C620.994 810.855 618.23 811.608 615.791 813.019L571.567 834.281C570.773 834.62 570.405 835.538 570.743 836.332 571.082 837.125 572 837.494 572.794 837.156 572.837 837.137 572.88 837.116 572.922 837.094L617.239 815.781C619.231 814.605 621.499 813.976 623.812 813.956Z" stroke="#2D4203" fill="#2D4203"/><path d="M703.5 798.172C702.062 798.142 700.648 798.54 699.438 799.316L672.719 814.628C671.969 815.06 671.711 816.017 672.142 816.767 672.574 817.517 673.531 817.775 674.281 817.344L701.091 801.972C701.807 801.508 702.647 801.273 703.5 801.297 706.089 801.297 708.188 803.395 708.188 805.984 708.125 807.37 707.535 808.68 706.537 809.644L663.684 840.973C662.866 841.592 661.87 841.93 660.844 841.938L631.625 841.938C615.644 841.938 602.653 846.823 593.017 856.469 592.353 857.02 592.261 858.005 592.812 858.669 593.363 859.333 594.348 859.425 595.012 858.874 595.087 858.812 595.156 858.742 595.219 858.667 604.252 849.638 616.498 845.062 631.625 845.062L660.844 845.062C662.527 845.053 664.162 844.505 665.513 843.5L708.483 812.094 708.667 811.938C710.306 810.385 711.258 808.243 711.312 805.986 711.308 801.673 707.813 798.177 703.5 798.172Z" stroke="#2D4203" fill="#2D4203"/><path d="M635.183 800.086C636.145 800.086 637.03 800.07 637.869 800.059L637.997 800.216C639.692 801.945 640.75 804.197 641 806.605 641.015 806.663 641.034 806.721 641.056 806.777 641.078 806.862 641.105 806.945 641.139 807.027 641.186 807.126 641.243 807.219 641.309 807.306 641.356 807.373 641.408 807.435 641.466 807.492 641.548 807.571 641.639 807.639 641.737 807.695 641.8 807.74 641.867 807.78 641.936 807.814 642.055 807.861 642.18 807.893 642.308 807.909 642.363 807.926 642.42 807.94 642.477 807.952L642.555 807.952C642.625 807.952 642.696 807.947 642.766 807.938 642.825 807.921 642.883 807.9 642.939 807.877 643.047 807.853 643.152 807.816 643.252 807.769 643.333 807.724 643.411 807.672 643.483 807.612 643.642 807.499 643.776 807.352 643.873 807.183 643.927 807.096 643.972 807.005 644.008 806.909 644.04 806.818 644.063 806.723 644.077 806.627 644.095 806.571 644.109 806.514 644.119 806.456 644.221 800.516 647.206 794.997 652.122 791.661 653.975 791.75 656.248 791.884 658.745 791.884 665.706 791.884 674.391 790.83 680.464 784.741 690.777 774.116 688.277 754.741 688.277 754.741 686.547 754.551 684.808 754.462 683.069 754.473 676.589 754.473 665.534 755.608 658.589 762.553 651.402 769.923 650.438 781.992 650.417 789.036 646.464 791.766 643.51 795.711 642.003 800.272 641.51 799.55 640.975 798.857 640.402 798.197 640.222 797.981 640.039 797.761 639.858 797.537 640.242 791.767 640.819 782.381 634.525 775.209 629.509 769.491 621.161 768.422 615.619 768.422 613.737 768.41 611.857 768.537 609.994 768.803 609.994 768.803 607.873 785.233 616.4 793.334 622.85 799.483 629.856 800.086 635.183 800.086ZM660.787 764.773C667.02 758.541 677.416 757.609 683.058 757.609 683.917 757.609 684.692 757.631 685.355 757.661 685.597 762.933 685.309 775.261 678.241 782.544 674 786.792 667.8 788.77 658.73 788.77 657.75 788.77 656.812 788.748 655.917 788.717 661.483 782.223 666.025 778.092 670.075 775.85 670.83 775.432 671.103 774.481 670.685 773.726 670.267 772.971 669.316 772.698 668.561 773.116 664.202 775.53 659.408 779.858 653.62 786.595 653.997 776.638 656.389 769.281 660.787 764.772ZM612.911 771.648C613.677 771.595 614.592 771.558 615.608 771.558 619.916 771.558 627.795 772.3 632.17 777.281 636.858 782.628 637.13 789.539 636.877 794.903 633.801 789.901 629.754 785.566 624.973 782.156 624.271 781.655 623.295 781.818 622.794 782.52 622.292 783.223 622.455 784.199 623.158 784.7 627.725 787.972 631.576 792.143 634.473 796.956 629.255 796.891 623.75 796.019 618.547 791.08 613.07 785.878 612.736 776.169 612.911 771.647Z" stroke="#2D4203" fill="#2D4203"/></g></svg>