<svg width="170" height="169" xmlns="http://www.w3.org/2000/svg" xmlns:xlink="http://www.w3.org/1999/xlink" xml:space="preserve" overflow="hidden"><defs><clipPath id="clip0"><rect x="875" y="338" width="170" height="169"/></clipPath></defs><g clip-path="url(#clip0)" transform="translate(-875 -338)"><path d="M84.5 59.8542C70.8885 59.8542 59.8542 70.8885 59.8542 84.5 59.8542 98.1115 70.8885 109.146 84.5 109.146 98.1115 109.146 109.146 98.1115 109.146 84.5 109.131 70.8944 98.1056 59.8688 84.5 59.8542ZM84.5 105.625C72.833 105.625 63.375 96.167 63.375 84.5 63.375 72.833 72.833 63.375 84.5 63.375 96.167 63.375 105.625 72.833 105.625 84.5 105.612 96.1617 96.1617 105.612 84.5 105.625Z" stroke="#2D4203" stroke-width="1.76042" fill="#2D4203" transform="matrix(1.00592 0 0 1 875 338)"/><path d="M82.7396 33.4479 86.2604 33.4479 86.2604 52.8125 82.7396 52.8125Z" stroke="#2D4203" stroke-width="1.76042" fill="#2D4203" transform="matrix(1.00592 0 0 1 875 338)"/><path d="M82.7396 116.188 86.2604 116.188 86.2604 135.552 82.7396 135.552Z" stroke="#2D4203" stroke-width="1.76042" fill="#2D4203" transform="matrix(1.00592 0 0 1 875 338)"/><path d="M116.188 82.7396 135.552 82.7396 135.552 86.2604 116.188 86.2604Z" stroke="#2D4203" stroke-width="1.76042" fill="#2D4203" transform="matrix(1.00592 0 0 1 875 338)"/><path d="M33.4479 82.7396 52.8125 82.7396 52.8125 86.2604 33.4479 86.2604Z" stroke="#2D4203" stroke-width="1.76042" fill="#2D4203" transform="matrix(1.00592 0 0 1 875 338)"/><path d="M104.377 53.6443 123.799 53.6443 123.799 57.1755 104.377 57.1755Z" stroke="#2D4203" stroke-width="1.7656" fill="#2D4203" transform="matrix(0.709202 -0.70503 0.709202 0.70503 869.218 434.617)"/><path d="M45.6991 112.322 65.1207 112.322 65.1207 115.854 45.6991 115.854Z" stroke="#2D4203" stroke-width="1.7656" fill="#2D4203" transform="matrix(0.709202 -0.70503 0.709202 0.70503 810.366 410.383)"/><path d="M112.322 104.377 115.853 104.377 115.853 123.799 112.322 123.799Z" stroke="#2D4203" stroke-width="1.7656" fill="#2D4203" transform="matrix(0.709227 -0.705006 0.709177 0.705055 827.604 451.748)"/><path d="M53.6443 45.699 57.1755 45.699 57.1755 65.1207 53.6443 65.1207Z" stroke="#2D4203" stroke-width="1.7656" fill="#2D4203" transform="matrix(0.709227 -0.705006 0.709177 0.705055 851.981 393.245)"/></g></svg>