<svg width="650" height="650" xmlns="http://www.w3.org/2000/svg" xmlns:xlink="http://www.w3.org/1999/xlink" xml:space="preserve" overflow="hidden"><defs><clipPath id="clip0"><rect x="5100" y="1183" width="650" height="650"/></clipPath><clipPath id="clip1"><path d="M5310.45 1298.85 5310.45 1718.4 5100.69 1506.41ZM5426.8 1183.73 5749.48 1509.84 5423.37 1832.52 5384.33 1793.06 5400.2 1793.06 5400.2 1241.81 5368.1 1241.81Z" fill-rule="evenodd" clip-rule="evenodd"/></clipPath><clipPath id="clip2"><path d="M5100.69 1506.41 5426.8 1183.73 5749.48 1509.84 5423.37 1832.52Z" fill-rule="evenodd" clip-rule="evenodd"/></clipPath><clipPath id="clip3"><path d="M5100.69 1506.41 5426.8 1183.73 5749.48 1509.84 5423.37 1832.52Z" fill-rule="evenodd" clip-rule="evenodd"/></clipPath><clipPath id="clip4"><rect x="5164" y="1496" width="230" height="230"/></clipPath><clipPath id="clip5"><rect x="5164" y="1496" width="230" height="230"/></clipPath><clipPath id="clip6"><rect x="5164" y="1496" width="230" height="230"/></clipPath><clipPath id="clip7"><rect x="5296" y="1344" width="122" height="121"/></clipPath><clipPath id="clip8"><rect x="5296" y="1344" width="122" height="121"/></clipPath><clipPath id="clip9"><rect x="5296" y="1344" width="122" height="121"/></clipPath></defs><g clip-path="url(#clip0)" transform="translate(-5100 -1183)"><g clip-path="url(#clip1)"><g clip-path="url(#clip2)"><g clip-path="url(#clip3)"><path d="M5361.31 1287.34 5358.98 1722.27 5488 1722.95 5490.32 1288.69ZM5368.59 1712.77 5370.81 1297 5480.71 1298.15 5480.46 1345.38 5418.35 1345.04 5418.3 1354.6 5480.41 1354.93 5480.18 1397.95 5441.96 1397.74 5441.91 1407.3 5480.14 1407.49 5479.9 1450.52 5417.8 1450.19 5417.75 1459.75 5479.85 1460.08 5479.63 1503.09 5441.41 1502.88 5441.36 1512.44 5479.57 1512.64 5479.34 1555.65 5417.23 1555.32 5417.18 1564.87 5479.29 1565.21 5479.07 1608.2 5440.86 1608 5440.81 1617.56 5479.02 1617.76 5478.79 1660.77 5416.68 1660.45 5416.63 1670.01 5478.71 1670.35 5478.48 1713.35Z" stroke="#2D4203" stroke-width="4.77888" fill="#2D4203"/></g></g></g><g clip-path="url(#clip4)"><g clip-path="url(#clip5)"><g clip-path="url(#clip6)"><path d="M54.8646 145.51C54.8646 178.446 81.5643 205.146 114.5 205.146 147.436 205.146 174.135 178.446 174.135 145.51 174.135 107.582 114.5 23.8542 114.5 23.8542 114.5 23.8542 54.8646 107.821 54.8646 145.51ZM169.365 145.51C169.365 175.811 144.801 200.375 114.5 200.375 84.1992 200.375 59.6354 175.811 59.6354 145.51 59.6354 115.229 101.394 51.5011 114.505 32.2403 127.622 51.4589 169.365 115.025 169.365 145.51Z" stroke="#2D4203" stroke-width="10.4091" fill="#2D4203" transform="matrix(1 0 0 1.00437 5164 1496)"/></g></g></g><g clip-path="url(#clip7)"><g clip-path="url(#clip8)"><g clip-path="url(#clip9)"><path d="M28.75 76.25C28.75 93.5088 42.7411 107.5 60 107.5 77.2589 107.5 91.25 93.5088 91.25 76.25 91.25 56.375 60 12.5 60 12.5 60 12.5 28.75 56.5 28.75 76.25ZM88.75 76.25C88.75 92.1282 75.8781 105 60 105 44.1219 105 31.25 92.1282 31.25 76.25 31.25 60.3821 53.1324 26.9875 60.0027 16.8945 66.8761 26.9654 88.75 60.275 88.75 76.25Z" stroke="#2D4203" stroke-width="10.2857" fill="#2D4203" transform="matrix(1 0 0 1 5297 1344)"/></g></g></g></g></svg>