<svg width="103" height="103" xmlns="http://www.w3.org/2000/svg" xmlns:xlink="http://www.w3.org/1999/xlink" xml:space="preserve" overflow="hidden"><defs><clipPath id="clip0"><rect x="1228" y="754" width="103" height="103"/></clipPath></defs><g clip-path="url(#clip0)" transform="translate(-1228 -754)"><path d="M1277.95 762.621C1260.6 763.438 1247.31 778.341 1247.31 795.588L1247.31 811.183 1241.63 822.625C1241.62 822.646 1241.61 822.667 1241.6 822.688 1239.31 827.553 1243.01 833.396 1248.39 833.396L1266.62 833.396C1266.62 840.468 1272.43 846.271 1279.5 846.271 1286.57 846.271 1292.38 840.468 1292.38 833.396L1310.61 833.396C1315.98 833.396 1319.69 827.554 1317.4 822.688 1317.39 822.667 1317.38 822.646 1317.37 822.625L1311.69 811.183 1311.69 794.771C1311.69 776.518 1296.37 761.754 1277.95 762.621ZM1278.25 769.05C1293.1 768.351 1305.25 780.098 1305.25 794.771L1305.25 811.938C1305.25 812.435 1305.36 812.925 1305.59 813.371L1311.58 825.433C1311.96 826.259 1311.52 826.958 1310.61 826.958L1248.39 826.958C1247.48 826.958 1247.04 826.26 1247.42 825.433 1247.42 825.433 1247.42 825.429 1247.42 825.429L1253.41 813.371C1253.64 812.925 1253.75 812.435 1253.75 811.938L1253.75 795.588C1253.75 781.639 1264.43 769.701 1278.25 769.05ZM1273.06 833.396 1285.94 833.396C1285.94 836.988 1283.09 839.833 1279.5 839.833 1275.91 839.833 1273.06 836.988 1273.06 833.396Z" fill="#2D4203"/></g></svg>