<svg width="532" height="637" xmlns="http://www.w3.org/2000/svg" xmlns:xlink="http://www.w3.org/1999/xlink" xml:space="preserve" overflow="hidden"><defs><clipPath id="clip0"><rect x="5119" y="2323" width="532" height="637"/></clipPath><clipPath id="clip1"><path d="M5146.43 2557.1 5379.78 2323.75 5613.12 2557.1 5379.78 2790.44Z" fill-rule="evenodd" clip-rule="evenodd"/></clipPath><clipPath id="clip2"><path d="M5146.43 2557.1 5379.78 2323.75 5613.12 2557.1 5379.78 2790.44Z" fill-rule="evenodd" clip-rule="evenodd"/></clipPath><clipPath id="clip3"><path d="M5146.43 2557.1 5379.78 2323.75 5613.12 2557.1 5379.78 2790.44Z" fill-rule="evenodd" clip-rule="evenodd"/></clipPath></defs><g clip-path="url(#clip0)" transform="translate(-5119 -2323)"><path d="M5119 2717 5641.5 2717" stroke="#2D4203" stroke-width="18.3333" stroke-linejoin="round" stroke-miterlimit="10" fill="none" fill-rule="evenodd"/><path d="M5183 2775 5627.12 2775" stroke="#2D4203" stroke-width="18.3333" stroke-linejoin="round" stroke-miterlimit="10" stroke-dasharray="73.3333 55" fill="none" fill-rule="evenodd"/><path d="M5119 2834 5641.5 2834" stroke="#2D4203" stroke-width="18.3333" stroke-linejoin="round" stroke-miterlimit="10" stroke-dasharray="73.3333 55" fill="none" fill-rule="evenodd"/><path d="M5183 2892 5627.12 2892" stroke="#2D4203" stroke-width="18.3333" stroke-linejoin="round" stroke-miterlimit="10" stroke-dasharray="73.3333 55" fill="none" fill-rule="evenodd"/><path d="M5119 2951 5641.5 2951" stroke="#2D4203" stroke-width="18.3333" stroke-linejoin="round" stroke-miterlimit="10" stroke-dasharray="73.3333 55" fill="none" fill-rule="evenodd"/><g clip-path="url(#clip1)"><g clip-path="url(#clip2)"><g clip-path="url(#clip3)"><path d="M5342.88 2360.94C5333.47 2370.35 5327.71 2383.33 5327.71 2397.69 5327.73 2404.78 5327.71 2633.66 5327.71 2639.5 5327.71 2651.89 5335.44 2662.14 5342.15 2671.73 5348.86 2681.32 5354.4 2690.4 5354.4 2695.35 5354.4 2698.67 5354.55 2704.54 5354.55 2709.21 5354.55 2709.39 5354.26 2709.61 5354.26 2709.79 5354.24 2709.99 5354.24 2710.17 5354.26 2710.38 5354.2 2710.87 5354.2 2711.34 5354.26 2711.83 5354.33 2712.23 5354.42 2712.62 5354.55 2713 5354.55 2719.2 5354.4 2724.41 5354.4 2730.65 5354.4 2743.01 5354.38 2752.36 5354.4 2753.98L5354.55 2754.13C5354.62 2767.98 5365.92 2779.36 5379.78 2779.36 5386.74 2779.36 5393.12 2776.51 5397.72 2771.92 5402.29 2767.34 5405.16 2760.95 5405.16 2753.98 5405.15 2753.62 5405.16 2731.6 5405.15 2714.02 5406.07 2712.23 5406.1 2710.16 5405.3 2708.33 5405.21 2708.13 5405.12 2707.93 5405.01 2707.75 5405.01 2702.65 5405.15 2698.85 5405.15 2695.35 5405.16 2690.65 5410.55 2681.5 5417.26 2671.87 5423.97 2662.25 5431.99 2651.75 5431.99 2639.35 5431.97 2633.97 5431.84 2404.88 5431.84 2397.69 5431.84 2369 5408.47 2345.63 5379.78 2345.63 5365.43 2345.61 5352.31 2351.52 5342.88 2360.94ZM5352.21 2370.27C5359.27 2363.22 5368.99 2358.75 5379.78 2358.75 5401.33 2358.75 5418.7 2376.13 5418.72 2397.69 5418.7 2405.22 5418.7 2633.54 5418.72 2639.5 5418.72 2645.51 5413.12 2654.76 5406.47 2664.29 5399.81 2673.82 5391.88 2683.39 5391.88 2695.21 5391.88 2697.83 5391.88 2700.97 5391.88 2704.54L5386.34 2704.54 5386.34 2469.74C5386.41 2466.89 5384.66 2464.31 5381.98 2463.34 5379.27 2462.37 5376.28 2463.25 5374.53 2465.51 5373.62 2466.71 5373.16 2468.22 5373.22 2469.74L5373.22 2704.54 5367.67 2704.54 5367.67 2695.21C5367.67 2683.29 5359.62 2673.66 5352.94 2664.14 5346.27 2654.63 5340.84 2645.51 5340.84 2639.5 5340.89 2639.44 5340.93 2639.41 5340.98 2639.35 5340.99 2639.24 5340.99 2634.17 5340.99 2633.81L5347.11 2633.81C5350.83 2633.81 5353.82 2630.82 5353.82 2627.1 5353.82 2623.38 5350.83 2620.39 5347.11 2620.39L5340.99 2620.39C5340.99 2616.64 5340.98 2603.18 5340.99 2596.47L5356.44 2596.47C5360.16 2596.47 5363.15 2593.48 5363.15 2589.76 5363.15 2586.05 5360.16 2583.06 5356.44 2583.06L5340.99 2583.06C5340.99 2575.03 5340.99 2568.91 5340.99 2559.14L5347.11 2559.14C5350.83 2559.14 5353.82 2556.15 5353.82 2552.43 5353.82 2548.71 5350.83 2545.72 5347.11 2545.72L5340.99 2545.72C5340.99 2535.33 5340.99 2532.7 5340.99 2521.8L5356.44 2521.8C5360.16 2521.8 5363.15 2518.81 5363.15 2515.09 5363.15 2511.38 5360.16 2508.39 5356.44 2508.39L5340.99 2508.39C5340.99 2497.56 5341 2494.55 5340.99 2484.47L5347.11 2484.47C5350.83 2484.47 5353.82 2481.48 5353.82 2477.76 5353.82 2474.04 5350.83 2471.05 5347.11 2471.05L5340.99 2471.05C5340.99 2461.72 5341 2454.48 5340.99 2447.13L5356.44 2447.13C5360.16 2447.13 5363.15 2444.14 5363.15 2440.42 5363.15 2436.7 5360.16 2433.72 5356.44 2433.71L5340.99 2433.72C5340.99 2427.81 5340.98 2412.5 5340.99 2409.8L5347.11 2409.8C5350.83 2409.8 5353.82 2406.81 5353.82 2403.09 5353.82 2399.37 5350.83 2396.38 5347.11 2396.38L5340.99 2396.38C5341.33 2386.12 5345.47 2377.02 5352.21 2370.27ZM5367.67 2717.67 5391.88 2717.67C5391.92 2733.49 5392.03 2752.78 5392.03 2753.98 5392.03 2753.98 5391.88 2754.13 5391.88 2754.13 5391.83 2757.43 5390.53 2760.44 5388.38 2762.59 5386.18 2764.79 5383.17 2766.23 5379.78 2766.23 5373 2766.23 5367.67 2760.91 5367.67 2754.13 5367.62 2754.07 5367.58 2754.04 5367.53 2753.98 5367.53 2754.35 5367.67 2742.93 5367.67 2730.5 5367.67 2725.98 5367.67 2722.33 5367.67 2717.67Z" fill="#2D4203"/></g></g></g></g></svg>