<svg width="129" height="129" xmlns="http://www.w3.org/2000/svg" xmlns:xlink="http://www.w3.org/1999/xlink" xml:space="preserve" overflow="hidden"><defs><clipPath id="clip0"><rect x="290" y="740" width="129" height="129"/></clipPath></defs><g clip-path="url(#clip0)" transform="translate(-290 -740)"><path d="M367.991 816.087 367.991 761.083C367.991 753.662 361.975 747.646 354.554 747.646 347.132 747.646 341.116 753.662 341.116 761.083L341.116 816.087C334.019 820.682 329.722 828.55 329.694 837.005 329.694 850.728 340.814 861.855 354.536 861.865 355.009 861.865 355.485 861.851 355.961 861.826 369.668 861.052 380.154 849.313 379.38 835.605 378.931 827.65 374.696 820.392 367.991 816.087ZM376.646 838.917C375.592 851.117 364.848 860.152 352.648 859.098 347.655 858.667 342.955 856.557 339.316 853.112 330.419 844.698 330.028 830.665 338.442 821.768 339.831 820.298 341.416 819.026 343.151 817.986L343.802 817.594 343.802 761.083C343.802 755.146 348.615 750.333 354.552 750.333 360.49 750.333 365.302 755.146 365.302 761.083L365.302 817.594 365.954 817.984C373.239 822.333 377.394 830.466 376.646 838.917Z" stroke="#2D4203" stroke-width="3.02344"/><path d="M355.897 825.669 355.897 790.646 353.21 790.646 353.21 825.669C346.946 826.412 342.469 832.091 343.211 838.356 343.953 844.62 349.633 849.097 355.897 848.354 362.162 847.612 366.638 841.933 365.896 835.668 365.275 830.425 361.141 826.291 355.897 825.669ZM354.554 845.74C349.73 845.74 345.819 841.829 345.819 837.005 345.819 832.182 349.73 828.271 354.554 828.271 359.378 828.271 363.288 832.182 363.288 837.005 363.282 841.827 359.375 845.734 354.554 845.74Z" stroke="#2D4203" stroke-width="3.02344"/></g></svg>