<svg width="129" height="138" xmlns="http://www.w3.org/2000/svg" xmlns:xlink="http://www.w3.org/1999/xlink" xml:space="preserve" overflow="hidden"><defs><clipPath id="clip0"><rect x="290" y="364" width="129" height="138"/></clipPath><clipPath id="clip1"><rect x="302" y="380" width="105" height="105"/></clipPath><clipPath id="clip2"><rect x="302" y="380" width="105" height="105"/></clipPath></defs><g clip-path="url(#clip0)" transform="translate(-290 -364)"><g clip-path="url(#clip1)"><g clip-path="url(#clip2)"><path d="M25.068 66.4848C25.068 81.5334 37.2674 93.7327 52.3159 93.7327 67.3645 93.7327 79.5638 81.5334 79.5638 66.4848 79.5638 49.1552 52.3159 10.8992 52.3159 10.8992 52.3159 10.8992 25.068 49.2642 25.068 66.4848ZM77.384 66.4848C77.384 80.3296 66.1606 91.5529 52.3159 91.5529 38.4713 91.5529 27.2479 80.3296 27.2479 66.4848 27.2479 52.6491 46.3278 23.5313 52.3183 14.7309 58.3114 23.512 77.384 52.5557 77.384 66.4848Z" stroke="#2D4203" stroke-width="2.01215" fill="#2D4203" transform="matrix(1.00009 0 0 1 302.179 380.003)"/></g></g></g></svg>