<svg width="22" height="20" viewBox="0 0 22 20" fill="none" xmlns="http://www.w3.org/2000/svg">
<path fill-rule="evenodd" clip-rule="evenodd" d="M6.59999 1.75C4.01806 1.75 1.92499 3.65279 1.92499 6C1.92499 8.05805 3.25527 10.3552 5.04258 12.4803C6.80724 14.5784 8.90991 16.3841 10.2356 17.44C10.6814 17.7951 11.3186 17.7951 11.7644 17.44C13.0901 16.3841 15.1927 14.5784 16.9574 12.4803C18.7447 10.3552 20.075 8.05805 20.075 6C20.075 3.65279 17.9819 1.75 15.4 1.75C13.8712 1.75 12.5139 2.41628 11.6596 3.45002L11 4.24811L10.3404 3.45002C9.48608 2.41628 8.12875 1.75 6.59999 1.75ZM0.274994 6C0.274994 2.82436 3.10679 0.25 6.59999 0.25C8.3104 0.25 9.86226 0.867733 11 1.86939C12.1377 0.867733 13.6896 0.25 15.4 0.25C18.8932 0.25 21.725 2.82436 21.725 6C21.725 8.57461 20.1043 11.2082 18.2682 13.3913C16.4094 15.6014 14.2161 17.4815 12.8518 18.5682C11.7836 19.419 10.2164 19.419 9.14822 18.5682C7.78389 17.4815 5.59061 15.6014 3.73182 13.3913C1.89567 11.2082 0.274994 8.57461 0.274994 6Z" fill="#699A3F"/>
</svg>
